<svg viewBox="0 0 505 321">

        <g transform="translate(0,321) scale(0.1,-0.1)">
                <path d="M365 3189 c-92 -13 -192 -68 -262 -142 -33 -35 -69 -85 -81 -110
l-22 -47 0 -1292 0 -1292 21 -44 c60 -124 212 -232 354 -252 95 -13 4215 -13
4310 0 103 15 199 65 272 143 103 110 93 -45 93 1447 0 1492 10 1337 -93 1447
-73 78 -169 128 -272 143 -88 12 -4234 11 -4320 -1z m4308 -303 c50 -18 76
-42 98 -91 18 -38 19 -95 19 -1195 0 -1100 -1 -1157 -19 -1195 -22 -49 -48
-73 -98 -91 -57 -20 -4229 -20 -4286 0 -48 18 -74 41 -98 88 -18 36 -19 79
-19 1198 0 1119 1 1162 19 1198 24 47 50 70 98 88 57 20 4229 20 4286 0z" />
                <path d="M790 2251 c-89 -29 -141 -60 -202 -122 -64 -66 -111 -155 -127 -243
-7 -36 -11 -206 -11 -426 0 -362 0 -367 23 -410 30 -57 77 -83 140 -77 102 9
137 64 137 215 l0 102 169 0 168 0 5 -110 c5 -122 14 -144 78 -187 64 -44 157
-21 200 49 19 32 20 52 20 439 0 380 -1 410 -20 464 -11 32 -31 77 -44 99 -33
56 -118 139 -175 170 -104 56 -255 72 -361 37z m228 -308 c15 -11 37 -35 50
-53 20 -30 22 -44 22 -166 l0 -134 -170 0 -170 0 0 113 c0 158 15 198 95 249
40 25 133 21 173 -9z" />
                <path d="M4011 2254 c-127 -34 -237 -127 -299 -253 l-37 -76 0 -325 0 -325 37
-76 c63 -128 172 -219 303 -254 266 -69 535 102 584 370 14 76 14 494 0 570
-50 269 -322 441 -588 369z m197 -298 c41 -21 81 -68 92 -107 13 -45 13 -454
0 -501 -12 -41 -75 -104 -115 -114 -41 -10 -115 2 -144 23 -14 11 -36 35 -48
53 -22 32 -23 40 -23 287 0 271 2 284 52 330 12 12 34 26 48 32 37 14 107 13
138 -3z" />
                <path d="M1652 2211 c-18 -12 -41 -35 -52 -53 -19 -31 -20 -52 -20 -434 0
-337 3 -409 16 -455 45 -154 177 -284 329 -323 253 -67 511 83 577 333 14 57
17 120 17 449 1 425 0 430 -63 475 -42 30 -132 31 -173 1 -62 -46 -63 -51 -63
-463 0 -360 -1 -376 -21 -418 -45 -93 -171 -122 -253 -59 -20 15 -41 37 -48
49 -10 16 -14 125 -18 417 -5 433 -5 427 -68 474 -38 29 -119 32 -160 7z" />
                <path d="M2700 2211 c-100 -53 -103 -183 -6 -255 23 -18 45 -22 137 -24 l109
-4 0 -417 c0 -415 0 -418 23 -461 54 -103 196 -107 257 -8 19 32 20 52 20 461
l0 427 98 0 c74 0 107 5 139 20 106 48 112 198 11 260 -31 19 -51 20 -393 20
-332 0 -363 -1 -395 -19z" />
        </g>
</svg>